<!DOCTYPE svg PUBLIC "-//W3C//DTD SVG 1.1//EN" "http://www.w3.org/Graphics/SVG/1.1/DTD/svg11.dtd">
<!-- Uploaded to: SVG Repo, www.svgrepo.com, Transformed by: SVG Repo Mixer Tools -->
<svg fill="#000000" width="182px" height="182px" viewBox="0 0 24.00 24.00" xmlns="http://www.w3.org/2000/svg" transform="rotate(0)" stroke="#000000" stroke-width="0.00024000000000000003">
<g id="SVGRepo_bgCarrier" stroke-width="0" transform="translate(0,0), scale(1)">
<path transform="translate(0, 0), scale(0.75)" d="M16,30.6071508936584C20.000614046430282,30.86934297489549,21.677506976638227,25.559092493803558,23.524841410803425,22.00086078067606C24.82357997067384,19.499303593560263,24.72132779211405,16.852524711222358,24.603067520351896,14.036405978741833C24.42532145586468,9.803758663049301,26.49025486980374,3.9802483954871946,22.68950547271291,2.1090987534239023C18.892254497502343,0.23967142192758795,15.751408840331163,5.7565669992416755,12.08702530618484,7.87462432404673C9.04239196989804,9.634458653389178,4.212712450095021,9.705385415776766,3.5668583313972544,13.162216547973161C2.9245277620776617,16.60018844426213,7.588165242640697,18.24131211379716,9.618046808113132,21.089437839622896C11.95048737003338,24.362083929602232,11.989835650498915,30.34433290504571,16,30.6071508936584" fill="#7ed0ec" strokewidth="0"/>
</g>
<g id="SVGRepo_tracerCarrier" stroke-linecap="round" stroke-linejoin="round" stroke="#CCCCCC" stroke-width="0.144"/>
<g id="SVGRepo_iconCarrier">
<path d="M21.92,6.62a1,1,0,0,0-.54-.54A1,1,0,0,0,21,6H16a1,1,0,0,0,0,2h2.59L13,13.59l-3.29-3.3a1,1,0,0,0-1.42,0l-6,6a1,1,0,0,0,0,1.42,1,1,0,0,0,1.42,0L9,12.41l3.29,3.3a1,1,0,0,0,1.42,0L20,9.41V12a1,1,0,0,0,2,0V7A1,1,0,0,0,21.92,6.62Z"/>
</g>
</svg>