<?xml version="1.0" encoding="iso-8859-1"?>
<!-- Uploaded to: SVG Repo, www.svgrepo.com, Generator: SVG Repo Mixer Tools -->
<!DOCTYPE svg PUBLIC "-//W3C//DTD SVG 1.1//EN" "http://www.w3.org/Graphics/SVG/1.1/DTD/svg11.dtd">
<svg fill="#000000" version="1.1" id="Capa_1" xmlns="http://www.w3.org/2000/svg" xmlns:xlink="http://www.w3.org/1999/xlink" 
	 width="800px" height="800px" viewBox="0 0 168.302 168.302"
	 xml:space="preserve">
<g>
	<g>
		<g>
			<path d="M79.229,87.598l-27.02-34.875c-0.817-1.056-0.964-2.484-0.377-3.683c0.524-1.07,16.997-27.695,103.163-25.961
				c1.935,0.039,3.491,1.587,3.479,3.521c-0.012,1.927-1.576,3.479-3.5,3.479c-0.007,0-0.014,0-0.021,0
				c-70.302-0.418-90.802,15.353-95.581,20.463l25.389,32.769c1.184,1.529,0.918,3.743-0.624,4.911
				C81.995,89.847,79.919,88.488,79.229,87.598z"/>
			<path d="M55.933,154.965c-0.103-0.413-9.938-41.502,19.289-54.699c12.864-5.811,20.217-12.773,21.854-20.698
				c2.031-9.834-5.582-18.33-5.659-18.414c-0.049-0.054-0.104-0.117-0.146-0.173L80.249,47.273c-1.211-1.507-0.972-3.71,0.534-4.921
				c1.506-1.211,3.709-0.972,4.921,0.534l10.958,13.63c1.077,1.206,9.896,11.56,7.286,24.394
				c-2.09,10.276-10.785,18.935-25.845,25.735c-23.966,10.823-15.465,46.275-15.377,46.633c0.467,1.877-0.657,3.861-2.553,4.24
				C57.704,158.011,56.328,156.559,55.933,154.965z"/>
			<path d="M134.864,145.273L97.509,108.23c-1.371-1.361-1.382-3.576-0.021-4.949c1.362-1.371,3.577-1.383,4.95-0.021l37.354,37.042
				c1.372,1.359,1.459,3.658,0.021,4.95C137.579,147.261,135.546,145.949,134.864,145.273z"/>
			<path d="M15.512,64.349c-8.348-7.761-5.078-21.524-4.935-22.106c0.462-1.877,2.358-3.023,4.235-2.562
				c1.874,0.461,3.021,2.353,2.563,4.228c-0.035,0.146-2.413,10.398,2.919,15.329c4.191,3.877,12.701,3.882,24.599,0.013
				c1.838-0.595,3.812,0.409,4.411,2.247c0.597,1.839-0.416,3.793-2.247,4.411C28.497,72.179,18.942,67.538,15.512,64.349z"/>
			<path d="M125.187,153.096c-1.293-1.438-1.367-3.583,0-4.949c1.359-1.358,3.562-1.365,4.929-0.021
				c0.084,0.077,5.796,4.552,11.812-2.19l8.021-9.857c1.22-1.497,3.424-1.725,4.924-0.506c1.499,1.222,1.728,3.425,0.506,4.925
				l-8,9.834C138.912,160.928,127.287,155.428,125.187,153.096z"/>
			<path d="M59.364,168.301c-14.64,0.127-15.491-14.175-15.452-14.812c0.116-1.928,1.786-3.407,3.705-3.279
				c1.92,0.115,3.384,1.759,3.283,3.676c-0.004,0.117-0.051,7.855,9.472,7.391l12.694-0.531c1.892-0.088,3.562,1.418,3.644,3.352
				c0.081,1.932-1.419,3.562-3.351,3.645C73.359,167.736,59.799,168.301,59.364,168.301z"/>
		</g>
		<path d="M57.803,33.167c9.144,0,16.582-7.438,16.582-16.582C74.385,7.439,66.947,0,57.803,0c-9.146,0-16.585,7.438-16.585,16.585
			C41.218,25.729,48.657,33.167,57.803,33.167z M57.803,7.181c5.184,0,9.401,4.219,9.401,9.404s-4.218,9.401-9.401,9.401
			c-5.187,0-9.404-4.217-9.404-9.401C48.398,11.4,52.616,7.181,57.803,7.181z"/>
	</g>
</g>
</svg>